<svg xmlns="http://www.w3.org/2000/svg" width="800" height="450" viewBox="0 0 800 450">
  <defs>
    <linearGradient id="bg" x1="0" y1="0" x2="1" y2="1">
      <stop offset="0%" stop-color="#0a0a1a"/>
      <stop offset="100%" stop-color="#12122a"/>
    </linearGradient>
    <linearGradient id="pg" x1="0" y1="0" x2="1" y2="1">
      <stop offset="0%" stop-color="#6c5ce7"/>
      <stop offset="100%" stop-color="#4834d4"/>
    </linearGradient>
    <linearGradient id="glow" x1="0" y1="0" x2="0" y2="1">
      <stop offset="0%" stop-color="#6c5ce7" stop-opacity="0.35"/>
      <stop offset="100%" stop-color="#4834d4" stop-opacity="0"/>
    </linearGradient>
    <filter id="soft" x="-30%" y="-30%" width="160%" height="160%">
      <feGaussianBlur stdDeviation="18"/>
    </filter>
  </defs>
  <rect width="800" height="450" fill="url(#bg)"/>
  <circle cx="400" cy="240" r="220" fill="url(#glow)" filter="url(#soft)"/>
  <g stroke="#ffffff" stroke-opacity="0.04" stroke-width="1">
    <line x1="0" y1="90" x2="800" y2="90"/>
    <line x1="0" y1="180" x2="800" y2="180"/>
    <line x1="0" y1="270" x2="800" y2="270"/>
    <line x1="0" y1="360" x2="800" y2="360"/>
    <line x1="160" y1="0" x2="160" y2="450"/>
    <line x1="320" y1="0" x2="320" y2="450"/>
    <line x1="480" y1="0" x2="480" y2="450"/>
    <line x1="640" y1="0" x2="640" y2="450"/>
  </g>
  <g transform="translate(400,222)">
    <rect x="-64" y="-64" width="128" height="128" rx="24" fill="url(#pg)"/>
    <rect x="-64" y="-64" width="128" height="128" rx="24" fill="none" stroke="#ffffff" stroke-opacity="0.18" stroke-width="2"/>
    <g stroke="#ffffff" stroke-width="7" fill="none" stroke-linecap="round" stroke-linejoin="round">
      <path d="M -30 -8 L -16 -8 L -11 4 L 4 4 L 4 -14 C -2 -14 -7 -12 -9 -8 C -11 -4 -15 -2 -20 -1 L -22 -8 L -30 -8 Z"/>
      <path d="M -30 -16 C -35 -18 -38 -23 -38 -29 C -38 -35 -33 -40 -27 -40"/>
      <circle cx="-27" cy="-34" r="7"/>
      <line x1="-27" y1="-40" x2="-27" y2="-44"/>
      <line x1="-24" y1="-44" x2="-30" y2="-44"/>
      <line x1="-27" y1="-27" x2="-28" y2="-19"/>
      <path d="M -30 4 L -30 16 C -30 18 -28 20 -26 20 L -20 20 L -16 16"/>
      <path d="M -14 -4 L 4 4 L 4 -14 C 2 -16 4 -20 8 -22"/>
      <circle cx="4" cy="-26" r="5"/>
      <line x1="4" y1="-31" x2="4" y2="-35"/>
      <line x1="0" y1="-35" x2="8" y2="-35"/>
      <path d="M -4 4 L -4 16 C -4 18 -2 20 0 20 L 9 20 L 13 14"/>
      <path d="M -37 4 L 38 4 C 41 4 43 6 43 9 L 43 12"/>
    </g>
  </g>
  <text x="400" y="374" text-anchor="middle" font-family="Segoe UI, Arial, sans-serif" font-size="20" fill="#ffffff" fill-opacity="0.75" letter-spacing="6">PLUS 90</text>
  <text x="400" y="410" text-anchor="middle" font-family="Segoe UI, Arial, sans-serif" font-size="12" fill="#ffffff" fill-opacity="0.35" letter-spacing="3">LOCAL DEALS &amp; DISCOUNTS</text>
</svg>